{"accessors":[{"bufferView":0,"byteOffset":0,"componentType":5126,"count":56,"max":[94.8654403686523,70.9461822509766,0],"min":[-3.59295988082886,-0.49951899051666,-169.727005004883],"normalized":false,"type":"VEC3"},{"bufferView":1,"byteOffset":0,"componentType":5126,"count":56,"max":[1,0.61409318447113,1,1],"min":[-0.85350632667542,-0.61412245035172,-1,-1],"normalized":false,"type":"VEC4"},{"bufferView":2,"byteOffset":0,"componentType":5126,"count":56,"max":[1,1,1],"min":[-1,-1,-1],"normalized":false,"type":"VEC3"},{"bufferView":3,"byteOffset":0,"componentType":5126,"count":56,"max":[0.326985567808151,1],"min":[0,0.350759148597717],"normalized":false,"type":"VEC2"},{"bufferView":4,"byteOffset":0,"componentType":5123,"count":108,"max":[55],"min":[0],"normalized":false,"type":"SCALAR"},{"bufferView":5,"byteOffset":0,"componentType":5126,"count":193,"max":[94.5734558105469,87.8635025024414,-9.91859436035156],"min":[-3.30255007743835,13.1297998428345,-98.7923965454102],"normalized":false,"type":"VEC3"},{"bufferView":6,"byteOffset":0,"componentType":5126,"count":193,"max":[1,0.755278944969177,0.753691732883453,1],"min":[-1,-0.98934561014175,-0.98973739147186,-1],"normalized":false,"type":"VEC4"},{"bufferView":7,"byteOffset":0,"componentType":5126,"count":193,"max":[0.97572660446167,0.991849839687347,0.976283550262451],"min":[-0.92105609178543,-0.9936335682869,-1],"normalized":false,"type":"VEC3"},{"bufferView":8,"byteOffset":0,"componentType":5126,"count":193,"max":[0.881712079048157,0.680338740348816],"min":[0.0319523923099041,0.0955367386341095],"normalized":false,"type":"VEC2"},{"bufferView":9,"byteOffset":0,"componentType":5123,"count":270,"max":[74],"min":[0],"normalized":false,"type":"SCALAR"},{"bufferView":10,"byteOffset":0,"componentType":5126,"count":171,"max":[94.8654403686523,70.9462127685547,0],"min":[-3.59295988082886,-4.52438020706177,-173.895004272461],"normalized":false,"type":"VEC3"},{"bufferView":11,"byteOffset":0,"componentType":5126,"count":171,"max":[1,0.999999940395355,1,1],"min":[-1,-1.00000011920929,-1,-1],"normalized":false,"type":"VEC4"},{"bufferView":12,"byteOffset":0,"componentType":5126,"count":171,"max":[1,1,1],"min":[-1,-0.9238862991333,-1],"normalized":false,"type":"VEC3"},{"bufferView":13,"byteOffset":0,"componentType":5126,"count":171,"max":[1.70381498336792,1.74163496494293],"min":[-0.68591976165771,-1.02951407432556],"normalized":false,"type":"VEC2"},{"bufferView":14,"byteOffset":0,"componentType":5123,"count":363,"max":[170],"min":[0],"normalized":false,"type":"SCALAR"},{"bufferView":15,"byteOffset":0,"componentType":5126,"count":8,"max":[86.2200012207031,62.9304389953613,-78.3861999511719],"min":[5.0524001121521,13.1297998428345,-78.3861999511719],"normalized":false,"type":"VEC3"},{"bufferView":16,"byteOffset":0,"componentType":5126,"count":8,"max":[-0.76799601316452,0.57014787197113,0.6240194439888,1],"min":[-0.79125720262527,-0.14412927627563,-0.62405443191528,1],"normalized":false,"type":"VEC4"},{"bufferView":17,"byteOffset":0,"componentType":5126,"count":8,"max":[0.577394485473633,0.577400684356689,-0.5772562623024],"min":[-0.57739400863647,-0.57730120420456,-0.57746887207031],"normalized":false,"type":"VEC3"},{"bufferView":18,"byteOffset":0,"componentType":5126,"count":8,"max":[0.626794815063477,0.363393604755402],"min":[0.351842522621155,0.0260929279029369],"normalized":false,"type":"VEC2"},{"bufferView":19,"byteOffset":0,"componentType":5123,"count":12,"max":[7],"min":[0],"normalized":false,"type":"SCALAR"},{"bufferView":20,"byteOffset":0,"componentType":5126,"count":86,"max":[0.0626110956072807,0.0650499016046524,0.034668006002903],"min":[-0.06325689703226,-0.06466209888458,-0.02934289909899],"normalized":false,"type":"VEC3"},{"bufferView":21,"byteOffset":0,"componentType":5126,"count":86,"max":[0.974918603897095,0.995876133441925,1,1],"min":[-0.9748951792717,-0.99587774276733,-0.60360664129257,-1],"normalized":false,"type":"VEC4"},{"bufferView":22,"byteOffset":0,"componentType":5126,"count":86,"max":[0.99587607383728,0.974895179271698,1],"min":[-0.99587774276733,-0.97491872310638,-1],"normalized":false,"type":"VEC3"},{"bufferView":23,"byteOffset":0,"componentType":5126,"count":86,"max":[1,0.990000009536743],"min":[-0.00001525878906,-0.00001510620132],"normalized":false,"type":"VEC2"},{"bufferView":24,"byteOffset":0,"componentType":5123,"count":144,"max":[83],"min":[0],"normalized":false,"type":"SCALAR"},{"bufferView":25,"byteOffset":0,"componentType":5126,"count":86,"max":[0.0626110956072807,0.0650499016046524,0.034668006002903],"min":[-0.06325689703226,-0.06466209888458,-0.02934289909899],"normalized":false,"type":"VEC3"},{"bufferView":26,"byteOffset":0,"componentType":5126,"count":86,"max":[0.974918603897095,0.995876133441925,1,1],"min":[-0.9748951792717,-0.99587774276733,-0.60360664129257,-1],"normalized":false,"type":"VEC4"},{"bufferView":27,"byteOffset":0,"componentType":5126,"count":86,"max":[0.99587607383728,0.974895179271698,1],"min":[-0.99587774276733,-0.97491872310638,-1],"normalized":false,"type":"VEC3"},{"bufferView":28,"byteOffset":0,"componentType":5126,"count":86,"max":[1,0.990000009536743],"min":[-0.00001525878906,-0.00001510620132],"normalized":false,"type":"VEC2"},{"bufferView":29,"byteOffset":0,"componentType":5123,"count":144,"max":[83],"min":[0],"normalized":false,"type":"SCALAR"},{"bufferView":30,"byteOffset":0,"componentType":5126,"count":753,"max":[94.8654022216797,87.8635025024414,-0.00000762938998],"min":[-3.59295988082886,-4.52438020706177,-173.895004272461],"normalized":false,"type":"VEC3"},{"bufferView":31,"byteOffset":0,"componentType":5123,"count":753,"max":[752],"min":[0],"normalized":false,"type":"SCALAR"},{"bufferView":32,"byteOffset":0,"componentType":5126,"count":88,"max":[33.1076011657715,58.8103981018066,-83.5188064575195],"min":[10.2988996505737,20.0088996887207,-95.940803527832],"normalized":false,"type":"VEC3"},{"bufferView":33,"byteOffset":0,"componentType":5126,"count":88,"max":[1,0.816912829875946,0.408252000808716,1],"min":[-1,-0.95349156856537,-1.00000011920929,-1],"normalized":false,"type":"VEC4"},{"bufferView":34,"byteOffset":0,"componentType":5126,"count":88,"max":[0.70715856552124,1,1],"min":[-0.70708125829697,-0.92292129993439,-0.89780479669571],"normalized":false,"type":"VEC3"},{"bufferView":35,"byteOffset":0,"componentType":5126,"count":88,"max":[0.846615016460419,1.59452497959137],"min":[-0.00001291831995,-0.64678812026978],"normalized":false,"type":"VEC2"},{"bufferView":36,"byteOffset":0,"componentType":5123,"count":156,"max":[87],"min":[0],"normalized":false,"type":"SCALAR"},{"bufferView":37,"byteOffset":0,"componentType":5126,"count":51,"max":[23.609489440918,81.4491958618164,-94.3326416015625],"min":[19.3344993591309,58.8103981018066,-101.18399810791],"normalized":false,"type":"VEC3"},{"bufferView":38,"byteOffset":0,"componentType":5126,"count":51,"max":[0.967009365558624,0.87751704454422,0.720594584941864,1],"min":[-0.99861109256744,-0.75051760673523,-0.9677906036377,-1],"normalized":false,"type":"VEC4"},{"bufferView":39,"byteOffset":0,"componentType":5126,"count":51,"max":[0.918324947357178,0.996783077716827,0.84402984380722],"min":[-0.97018259763718,-0.99443888664246,-0.83701527118683],"normalized":false,"type":"VEC3"},{"bufferView":40,"byteOffset":0,"componentType":5126,"count":51,"max":[0.874998092651367,1],"min":[0.12498664855957,0],"normalized":false,"type":"VEC2"},{"bufferView":41,"byteOffset":0,"componentType":5123,"count":60,"max":[19],"min":[0],"normalized":false,"type":"SCALAR"},{"bufferView":42,"byteOffset":0,"componentType":5126,"count":88,"max":[33.1076011657715,58.8103981018066,-83.5188064575195],"min":[10.2988996505737,20.0088996887207,-95.940803527832],"normalized":false,"type":"VEC3"},{"bufferView":43,"byteOffset":0,"componentType":5126,"count":88,"max":[1,0.816912829875946,0.408252000808716,1],"min":[-1,-0.95349156856537,-1.00000011920929,-1],"normalized":false,"type":"VEC4"},{"bufferView":44,"byteOffset":0,"componentType":5126,"count":88,"max":[0.70715856552124,1,1],"min":[-0.70708125829697,-0.92292129993439,-0.89780479669571],"normalized":false,"type":"VEC3"},{"bufferView":45,"byteOffset":0,"componentType":5126,"count":88,"max":[0.846615016460419,1.59452497959137],"min":[-0.00001291831995,-0.64678812026978],"normalized":false,"type":"VEC2"},{"bufferView":46,"byteOffset":0,"componentType":5123,"count":156,"max":[87],"min":[0],"normalized":false,"type":"SCALAR"},{"bufferView":47,"byteOffset":0,"componentType":5126,"count":51,"max":[23.609489440918,81.4491958618164,-94.3326416015625],"min":[19.3344993591309,58.8103981018066,-101.18399810791],"normalized":false,"type":"VEC3"},{"bufferView":48,"byteOffset":0,"componentType":5126,"count":51,"max":[0.967009365558624,0.87751704454422,0.720594584941864,1],"min":[-0.99861109256744,-0.75051760673523,-0.9677906036377,-1],"normalized":false,"type":"VEC4"},{"bufferView":49,"byteOffset":0,"componentType":5126,"count":51,"max":[0.918324947357178,0.996783077716827,0.84402984380722],"min":[-0.97018259763718,-0.99443888664246,-0.83701527118683],"normalized":false,"type":"VEC3"},{"bufferView":50,"byteOffset":0,"componentType":5126,"count":51,"max":[0.874998092651367,1],"min":[0.12498664855957,0],"normalized":false,"type":"VEC2"},{"bufferView":51,"byteOffset":0,"componentType":5123,"count":60,"max":[19],"min":[0],"normalized":false,"type":"SCALAR"}],"asset":{"generator":"Godot Engine v4.3.stable.mono.official@77dcf97d82cbfe4e4615475fa52ca03da645dbd8","version":"2.0"},"bufferViews":[{"buffer":0,"byteLength":672,"byteOffset":0,"byteStride":12,"target":34962},{"buffer":0,"byteLength":896,"byteOffset":672,"byteStride":16,"target":34962},{"buffer":0,"byteLength":672,"byteOffset":1568,"byteStride":12,"target":34962},{"buffer":0,"byteLength":448,"byteOffset":2240,"byteStride":8,"target":34962},{"buffer":0,"byteLength":216,"byteOffset":2688,"target":34963},{"buffer":0,"byteLength":2316,"byteOffset":2904,"byteStride":12,"target":34962},{"buffer":0,"byteLength":3088,"byteOffset":5220,"byteStride":16,"target":34962},{"buffer":0,"byteLength":2316,"byteOffset":8308,"byteStride":12,"target":34962},{"buffer":0,"byteLength":1544,"byteOffset":10624,"byteStride":8,"target":34962},{"buffer":0,"byteLength":540,"byteOffset":12168,"target":34963},{"buffer":0,"byteLength":2052,"byteOffset":12708,"byteStride":12,"target":34962},{"buffer":0,"byteLength":2736,"byteOffset":14760,"byteStride":16,"target":34962},{"buffer":0,"byteLength":2052,"byteOffset":17496,"byteStride":12,"target":34962},{"buffer":0,"byteLength":1368,"byteOffset":19548,"byteStride":8,"target":34962},{"buffer":0,"byteLength":726,"byteOffset":20916,"target":34963},{"buffer":0,"byteLength":96,"byteOffset":21644,"byteStride":12,"target":34962},{"buffer":0,"byteLength":128,"byteOffset":21740,"byteStride":16,"target":34962},{"buffer":0,"byteLength":96,"byteOffset":21868,"byteStride":12,"target":34962},{"buffer":0,"byteLength":64,"byteOffset":21964,"byteStride":8,"target":34962},{"buffer":0,"byteLength":24,"byteOffset":22028,"target":34963},{"buffer":0,"byteLength":1032,"byteOffset":22052,"byteStride":12,"target":34962},{"buffer":0,"byteLength":1376,"byteOffset":23084,"byteStride":16,"target":34962},{"buffer":0,"byteLength":1032,"byteOffset":24460,"byteStride":12,"target":34962},{"buffer":0,"byteLength":688,"byteOffset":25492,"byteStride":8,"target":34962},{"buffer":0,"byteLength":288,"byteOffset":26180,"target":34963},{"buffer":0,"byteLength":1032,"byteOffset":26468,"byteStride":12,"target":34962},{"buffer":0,"byteLength":1376,"byteOffset":27500,"byteStride":16,"target":34962},{"buffer":0,"byteLength":1032,"byteOffset":28876,"byteStride":12,"target":34962},{"buffer":0,"byteLength":688,"byteOffset":29908,"byteStride":8,"target":34962},{"buffer":0,"byteLength":288,"byteOffset":30596,"target":34963},{"buffer":0,"byteLength":9036,"byteOffset":30884,"byteStride":12,"target":34962},{"buffer":0,"byteLength":1506,"byteOffset":39920,"target":34963},{"buffer":0,"byteLength":1056,"byteOffset":41428,"byteStride":12,"target":34962},{"buffer":0,"byteLength":1408,"byteOffset":42484,"byteStride":16,"target":34962},{"buffer":0,"byteLength":1056,"byteOffset":43892,"byteStride":12,"target":34962},{"buffer":0,"byteLength":704,"byteOffset":44948,"byteStride":8,"target":34962},{"buffer":0,"byteLength":312,"byteOffset":45652,"target":34963},{"buffer":0,"byteLength":612,"byteOffset":45964,"byteStride":12,"target":34962},{"buffer":0,"byteLength":816,"byteOffset":46576,"byteStride":16,"target":34962},{"buffer":0,"byteLength":612,"byteOffset":47392,"byteStride":12,"target":34962},{"buffer":0,"byteLength":408,"byteOffset":48004,"byteStride":8,"target":34962},{"buffer":0,"byteLength":120,"byteOffset":48412,"target":34963},{"buffer":0,"byteLength":1056,"byteOffset":48532,"byteStride":12,"target":34962},{"buffer":0,"byteLength":1408,"byteOffset":49588,"byteStride":16,"target":34962},{"buffer":0,"byteLength":1056,"byteOffset":50996,"byteStride":12,"target":34962},{"buffer":0,"byteLength":704,"byteOffset":52052,"byteStride":8,"target":34962},{"buffer":0,"byteLength":312,"byteOffset":52756,"target":34963},{"buffer":0,"byteLength":612,"byteOffset":53068,"byteStride":12,"target":34962},{"buffer":0,"byteLength":816,"byteOffset":53680,"byteStride":16,"target":34962},{"buffer":0,"byteLength":612,"byteOffset":54496,"byteStride":12,"target":34962},{"buffer":0,"byteLength":408,"byteOffset":55108,"byteStride":8,"target":34962},{"buffer":0,"byteLength":120,"byteOffset":55516,"target":34963}],"buffers":[{"byteLength":55636,"uri":"Fryer0.bin"}],"extensions":{"OMI_physics_shape":{"shapes":[{"trimesh":{"mesh":3},"type":"trimesh"}]}},"extensionsUsed":["GODOT_single_root","OMI_physics_body","OMI_physics_shape"],"images":[{"uri":"textures%2Fgrill_albedo000.png"},{"uri":"textures%2Ffryermetal_albedo000.png"},{"uri":"textures%2Ffryermetal_orm000.png"},{"uri":"textures%2Ffryermetal_normal000.png"},{"uri":"textures%2Ftest2_albedo.png"},{"uri":"textures%2Fgrill_albedo002.png"}],"materials":[{"alphaMode":"BLEND","extensions":{},"name":"grill","pbrMetallicRoughness":{"baseColorFactor":[0.99999988079071,0.99999988079071,0.99999988079071,1],"baseColorTexture":{"index":0},"metallicFactor":0,"roughnessFactor":0.5}},{"doubleSided":true,"extensions":{},"name":"fryer1","pbrMetallicRoughness":{"baseColorFactor":[0.219327747821808,0.219327747821808,0.219327747821808,1],"metallicFactor":0.823834002017975,"roughnessFactor":0.090673603117466}},{"doubleSided":true,"extensions":{},"name":"fryermetal","normalTexture":{"index":3,"scale":1},"pbrMetallicRoughness":{"baseColorFactor":[0.99999988079071,0.99999988079071,0.99999988079071,1],"baseColorTexture":{"index":1},"metallicFactor":0,"metallicRoughnessTexture":{"index":2},"roughnessFactor":1}},{"doubleSided":true,"extensions":{},"name":"fryertop","pbrMetallicRoughness":{"baseColorFactor":[0.35553640127182,0.35553640127182,0.35553640127182,1],"metallicFactor":0,"roughnessFactor":0.5}},{"doubleSided":true,"extensions":{},"name":"test2","pbrMetallicRoughness":{"baseColorFactor":[0.99999988079071,0.99999988079071,0.99999988079071,1],"baseColorTexture":{"index":4},"metallicFactor":0.72265499830246,"roughnessFactor":0.134920999407768}},{"alphaMode":"BLEND","extensions":{},"name":"grill2","pbrMetallicRoughness":{"baseColorFactor":[0.99999988079071,0.99999988079071,0.99999988079071,1],"baseColorTexture":{"index":5},"metallicFactor":0,"roughnessFactor":0.5}},{"doubleSided":true,"extensions":{},"name":"fryerhandle","pbrMetallicRoughness":{"baseColorFactor":[0.0190875846892595,0.0190875846892595,0.0190875846892595,1],"metallicFactor":0.450776994228363,"roughnessFactor":0.313470989465714}}],"meshes":[{"extras":{"targetNames":[]},"primitives":[{"attributes":{"NORMAL":2,"POSITION":0,"TANGENT":1,"TEXCOORD_0":3},"indices":4,"material":0,"mode":4},{"attributes":{"NORMAL":7,"POSITION":5,"TANGENT":6,"TEXCOORD_0":8},"indices":9,"material":1,"mode":4},{"attributes":{"NORMAL":12,"POSITION":10,"TANGENT":11,"TEXCOORD_0":13},"indices":14,"material":2,"mode":4},{"attributes":{"NORMAL":17,"POSITION":15,"TANGENT":16,"TEXCOORD_0":18},"indices":19,"material":3,"mode":4}]},{"extras":{"targetNames":[]},"primitives":[{"attributes":{"NORMAL":22,"POSITION":20,"TANGENT":21,"TEXCOORD_0":23},"indices":24,"material":4,"mode":4}]},{"extras":{"targetNames":[]},"primitives":[{"attributes":{"NORMAL":27,"POSITION":25,"TANGENT":26,"TEXCOORD_0":28},"indices":29,"material":4,"mode":4}]},{"extras":{"targetNames":[]},"primitives":[{"attributes":{"POSITION":30},"indices":31,"mode":4}]},{"extras":{"targetNames":[]},"primitives":[{"attributes":{"NORMAL":34,"POSITION":32,"TANGENT":33,"TEXCOORD_0":35},"indices":36,"material":5,"mode":4},{"attributes":{"NORMAL":39,"POSITION":37,"TANGENT":38,"TEXCOORD_0":40},"indices":41,"material":6,"mode":4}]},{"extras":{"targetNames":[]},"primitives":[{"attributes":{"NORMAL":44,"POSITION":42,"TANGENT":43,"TEXCOORD_0":45},"indices":46,"material":5,"mode":4},{"attributes":{"NORMAL":49,"POSITION":47,"TANGENT":48,"TEXCOORD_0":50},"indices":51,"material":6,"mode":4}]}],"nodes":[{"children":[1,6,7],"name":"Fryer"},{"children":[2,3,4],"mesh":0,"name":"fryer ","rotation":[0.499999940395355,0.500000059604645,-0.5,0.5],"scale":[0.0180968996137381,0.0180968996137381,0.0180968996137381],"translation":[-1.5827100276947,0.0936926007270813,-0.06745669990778]},{"matrix":[68.8588027954102,-0.74147599935532,-39.4038009643555,0,-39.3851013183594,1.56683003902435,-68.855598449707,0,1.409019947052,78.6154022216797,0.982954025268555,0,21.6173000335693,77.6268997192383,-80.5096969604492,1],"mesh":1,"name":"dial1"},{"matrix":[68.8588027954102,-0.74147599935532,-39.4038009643555,0,-39.3851013183594,1.56683003902435,-68.855598449707,0,1.409019947052,78.6154022216797,0.982954025268555,0,70.7480010986328,77.6268997192383,-80.5096969604492,1],"mesh":2,"name":"dial2"},{"children":[5],"extensions":{"OMI_physics_body":{"motion":{"type":"static"}}},"name":"StaticBody3D"},{"extensions":{"OMI_physics_body":{"collider":{"shape":0}}},"name":"CollisionShape3D"},{"mesh":4,"name":"fryer basket1 ","rotation":[0.499999940395355,0.500000059604645,-0.5,0.5],"scale":[0.0180968996137381,0.0180968996137381,0.0180968996137381],"translation":[-1.5900000333786,0.0659999996423721,-0.09000000357628]},{"mesh":5,"name":"fryer basket1 2","rotation":[0.499999940395355,0.500000059604645,-0.5,0.5],"scale":[0.0180968996137381,0.0180968996137381,0.0180968996137381],"translation":[-1.5900000333786,0.0659999996423721,-0.96269702911377]}],"samplers":[{"magFilter":9729,"minFilter":9987,"wrapS":10497,"wrapT":10497}],"scene":0,"scenes":[{"nodes":[0]}],"textures":[{"sampler":0,"source":0},{"sampler":0,"source":1},{"sampler":0,"source":2},{"sampler":0,"source":3},{"sampler":0,"source":4},{"sampler":0,"source":5}]}