{"accessors":[{"bufferView":0,"byteOffset":0,"componentType":5126,"count":56,"max":[94.8654403686523,70.9461822509766,0],"min":[-3.59295988082886,-0.49951899051666,-169.727005004883],"normalized":false,"type":"VEC3"},{"bufferView":1,"byteOffset":0,"componentType":5126,"count":56,"max":[1,0.61409318447113,1,1],"min":[-0.85350632667542,-0.61412245035172,-1,-1],"normalized":false,"type":"VEC4"},{"bufferView":2,"byteOffset":0,"componentType":5126,"count":56,"max":[1,1,1],"min":[-1,-1,-1],"normalized":false,"type":"VEC3"},{"bufferView":3,"byteOffset":0,"componentType":5126,"count":56,"max":[0.326985567808151,1],"min":[0,0.350759148597717],"normalized":false,"type":"VEC2"},{"bufferView":4,"byteOffset":0,"componentType":5123,"count":108,"max":[55],"min":[0],"normalized":false,"type":"SCALAR"},{"bufferView":5,"byteOffset":0,"componentType":5126,"count":189,"max":[94.5734558105469,87.8634033203125,-9.91859436035156],"min":[-3.30255007743835,66.1025009155273,-98.7923965454102],"normalized":false,"type":"VEC3"},{"bufferView":6,"byteOffset":0,"componentType":5126,"count":189,"max":[1,0.865908741950989,0.800474524497986,1],"min":[-1,-0.99111914634705,-0.98973739147186,-1],"normalized":false,"type":"VEC4"},{"bufferView":7,"byteOffset":0,"componentType":5126,"count":189,"max":[0.982521235942841,0.991849839687347,0.972159683704376],"min":[-0.99141305685043,-0.99101197719574,-1],"normalized":false,"type":"VEC3"},{"bufferView":8,"byteOffset":0,"componentType":5126,"count":189,"max":[0.329060792922974,0.680338740348816],"min":[0.0705424547195435,0.155413135886192],"normalized":false,"type":"VEC2"},{"bufferView":9,"byteOffset":0,"componentType":5123,"count":222,"max":[42],"min":[0],"normalized":false,"type":"SCALAR"},{"bufferView":10,"byteOffset":0,"componentType":5126,"count":157,"max":[94.8654403686523,70.9462127685547,0],"min":[-3.59295988082886,-4.52438020706177,-173.895004272461],"normalized":false,"type":"VEC3"},{"bufferView":11,"byteOffset":0,"componentType":5126,"count":157,"max":[1,0.856350839138031,1,1],"min":[-0.85350632667542,-1.00000011920929,-1,-1],"normalized":false,"type":"VEC4"},{"bufferView":12,"byteOffset":0,"componentType":5126,"count":157,"max":[1,1,1],"min":[-1,-0.70714920759201,-1],"normalized":false,"type":"VEC3"},{"bufferView":13,"byteOffset":0,"componentType":5126,"count":157,"max":[1.70381498336792,1.74163496494293],"min":[-0.68591976165771,-1.02951407432556],"normalized":false,"type":"VEC2"},{"bufferView":14,"byteOffset":0,"componentType":5123,"count":309,"max":[156],"min":[0],"normalized":false,"type":"SCALAR"},{"bufferView":15,"byteOffset":0,"componentType":5126,"count":4,"max":[93.5746002197266,70.9301910400391,-94.9585037231445],"min":[-2.9475998878479,-0.49951899051666,-94.9585037231445],"normalized":false,"type":"VEC3"},{"bufferView":16,"byteOffset":0,"componentType":5126,"count":4,"max":[1,0.0000132150680656196,0.0350657403469086,1],"min":[0.707535982131958,-0.70580685138702,-0.00003051804379,-1],"normalized":false,"type":"VEC4"},{"bufferView":17,"byteOffset":0,"componentType":5126,"count":4,"max":[-0.00002288789619,0.866049468517303,0.03517185151577],"min":[-0.70667743682861,-0.70666122436523,-1],"normalized":false,"type":"VEC3"},{"bufferView":18,"byteOffset":0,"componentType":5126,"count":4,"max":[1.33565497398376,1.1574649810791],"min":[-0.33654800057411,-0.0800608843565],"normalized":false,"type":"VEC2"},{"bufferView":19,"byteOffset":0,"componentType":5123,"count":6,"max":[3],"min":[0],"normalized":false,"type":"SCALAR"},{"bufferView":20,"byteOffset":0,"componentType":5126,"count":86,"max":[0.0626110956072807,0.0650499016046524,0.034668006002903],"min":[-0.06325689703226,-0.06466209888458,-0.02934289909899],"normalized":false,"type":"VEC3"},{"bufferView":21,"byteOffset":0,"componentType":5126,"count":86,"max":[0.974918603897095,0.995876133441925,1,1],"min":[-0.9748951792717,-0.99587774276733,-0.60360664129257,-1],"normalized":false,"type":"VEC4"},{"bufferView":22,"byteOffset":0,"componentType":5126,"count":86,"max":[0.99587607383728,0.974895179271698,1],"min":[-0.99587774276733,-0.97491872310638,-1],"normalized":false,"type":"VEC3"},{"bufferView":23,"byteOffset":0,"componentType":5126,"count":86,"max":[1,0.990000009536743],"min":[-0.00001525878906,-0.00001510620132],"normalized":false,"type":"VEC2"},{"bufferView":24,"byteOffset":0,"componentType":5123,"count":144,"max":[83],"min":[0],"normalized":false,"type":"SCALAR"},{"bufferView":25,"byteOffset":0,"componentType":5126,"count":86,"max":[0.0626110956072807,0.0650499016046524,0.034668006002903],"min":[-0.06325689703226,-0.06466209888458,-0.02934289909899],"normalized":false,"type":"VEC3"},{"bufferView":26,"byteOffset":0,"componentType":5126,"count":86,"max":[0.974918603897095,0.995876133441925,1,1],"min":[-0.9748951792717,-0.99587774276733,-0.60360664129257,-1],"normalized":false,"type":"VEC4"},{"bufferView":27,"byteOffset":0,"componentType":5126,"count":86,"max":[0.99587607383728,0.974895179271698,1],"min":[-0.99587774276733,-0.97491872310638,-1],"normalized":false,"type":"VEC3"},{"bufferView":28,"byteOffset":0,"componentType":5126,"count":86,"max":[1,0.990000009536743],"min":[-0.00001525878906,-0.00001510620132],"normalized":false,"type":"VEC2"},{"bufferView":29,"byteOffset":0,"componentType":5123,"count":144,"max":[83],"min":[0],"normalized":false,"type":"SCALAR"}],"asset":{"generator":"Godot Engine v4.3.stable.mono.official@77dcf97d82cbfe4e4615475fa52ca03da645dbd8","version":"2.0"},"bufferViews":[{"buffer":0,"byteLength":672,"byteOffset":0,"byteStride":12,"target":34962},{"buffer":0,"byteLength":896,"byteOffset":672,"byteStride":16,"target":34962},{"buffer":0,"byteLength":672,"byteOffset":1568,"byteStride":12,"target":34962},{"buffer":0,"byteLength":448,"byteOffset":2240,"byteStride":8,"target":34962},{"buffer":0,"byteLength":216,"byteOffset":2688,"target":34963},{"buffer":0,"byteLength":2268,"byteOffset":2904,"byteStride":12,"target":34962},{"buffer":0,"byteLength":3024,"byteOffset":5172,"byteStride":16,"target":34962},{"buffer":0,"byteLength":2268,"byteOffset":8196,"byteStride":12,"target":34962},{"buffer":0,"byteLength":1512,"byteOffset":10464,"byteStride":8,"target":34962},{"buffer":0,"byteLength":444,"byteOffset":11976,"target":34963},{"buffer":0,"byteLength":1884,"byteOffset":12420,"byteStride":12,"target":34962},{"buffer":0,"byteLength":2512,"byteOffset":14304,"byteStride":16,"target":34962},{"buffer":0,"byteLength":1884,"byteOffset":16816,"byteStride":12,"target":34962},{"buffer":0,"byteLength":1256,"byteOffset":18700,"byteStride":8,"target":34962},{"buffer":0,"byteLength":618,"byteOffset":19956,"target":34963},{"buffer":0,"byteLength":48,"byteOffset":20576,"byteStride":12,"target":34962},{"buffer":0,"byteLength":64,"byteOffset":20624,"byteStride":16,"target":34962},{"buffer":0,"byteLength":48,"byteOffset":20688,"byteStride":12,"target":34962},{"buffer":0,"byteLength":32,"byteOffset":20736,"byteStride":8,"target":34962},{"buffer":0,"byteLength":12,"byteOffset":20768,"target":34963},{"buffer":0,"byteLength":1032,"byteOffset":20780,"byteStride":12,"target":34962},{"buffer":0,"byteLength":1376,"byteOffset":21812,"byteStride":16,"target":34962},{"buffer":0,"byteLength":1032,"byteOffset":23188,"byteStride":12,"target":34962},{"buffer":0,"byteLength":688,"byteOffset":24220,"byteStride":8,"target":34962},{"buffer":0,"byteLength":288,"byteOffset":24908,"target":34963},{"buffer":0,"byteLength":1032,"byteOffset":25196,"byteStride":12,"target":34962},{"buffer":0,"byteLength":1376,"byteOffset":26228,"byteStride":16,"target":34962},{"buffer":0,"byteLength":1032,"byteOffset":27604,"byteStride":12,"target":34962},{"buffer":0,"byteLength":688,"byteOffset":28636,"byteStride":8,"target":34962},{"buffer":0,"byteLength":288,"byteOffset":29324,"target":34963}],"buffers":[{"byteLength":29612,"uri":"griddle0.bin"}],"extensionsUsed":["GODOT_single_root"],"images":[{"uri":"textures%2Fgrill_albedo000.png"},{"uri":"textures%2Ffryermetal_albedo000.png"},{"uri":"textures%2Ffryermetal_orm000.png"},{"uri":"textures%2Ffryermetal_normal000.png"},{"uri":"textures%2Ftest2_albedo.png"}],"materials":[{"alphaMode":"BLEND","extensions":{},"name":"grill","pbrMetallicRoughness":{"baseColorFactor":[0.99999988079071,0.99999988079071,0.99999988079071,1],"baseColorTexture":{"index":0},"metallicFactor":0,"roughnessFactor":0.5}},{"doubleSided":true,"extensions":{},"name":"fryer1","pbrMetallicRoughness":{"baseColorFactor":[0.219327747821808,0.219327747821808,0.219327747821808,1],"metallicFactor":0.823834002017975,"roughnessFactor":0.090673603117466}},{"doubleSided":true,"extensions":{},"name":"fryermetal","normalTexture":{"index":3,"scale":1},"pbrMetallicRoughness":{"baseColorFactor":[0.99999988079071,0.99999988079071,0.99999988079071,1],"baseColorTexture":{"index":1},"metallicFactor":0,"metallicRoughnessTexture":{"index":2},"roughnessFactor":1}},{"doubleSided":true,"extensions":{},"name":"test2","pbrMetallicRoughness":{"baseColorFactor":[0.99999988079071,0.99999988079071,0.99999988079071,1],"baseColorTexture":{"index":4},"metallicFactor":0.72265499830246,"roughnessFactor":0.134920999407768}}],"meshes":[{"extras":{"targetNames":[]},"primitives":[{"attributes":{"NORMAL":2,"POSITION":0,"TANGENT":1,"TEXCOORD_0":3},"indices":4,"material":0,"mode":4},{"attributes":{"NORMAL":7,"POSITION":5,"TANGENT":6,"TEXCOORD_0":8},"indices":9,"material":1,"mode":4},{"attributes":{"NORMAL":12,"POSITION":10,"TANGENT":11,"TEXCOORD_0":13},"indices":14,"material":2,"mode":4},{"attributes":{"NORMAL":17,"POSITION":15,"TANGENT":16,"TEXCOORD_0":18},"indices":19,"material":2,"mode":4}]},{"extras":{"targetNames":[]},"primitives":[{"attributes":{"NORMAL":22,"POSITION":20,"TANGENT":21,"TEXCOORD_0":23},"indices":24,"material":3,"mode":4}]},{"extras":{"targetNames":[]},"primitives":[{"attributes":{"NORMAL":27,"POSITION":25,"TANGENT":26,"TEXCOORD_0":28},"indices":29,"material":3,"mode":4}]}],"nodes":[{"children":[1],"name":"griddle"},{"children":[2,3],"mesh":0,"name":"griddle ","rotation":[0.499999940395355,0.500000059604645,-0.5,0.5],"scale":[0.0180968996137381,0.0180968996137381,0.0180968996137381]},{"matrix":[68.8588027954102,-0.74147599935532,-39.4038009643555,0,-39.3851013183594,1.56683003902435,-68.855598449707,0,1.409019947052,78.6154022216797,0.982954025268555,0,22.88450050354,77.6268997192383,-80.5096969604492,1],"mesh":1,"name":"dial1_001"},{"matrix":[68.8588027954102,-0.74147599935532,-39.4038009643555,0,-39.3851013183594,1.56683003902435,-68.855598449707,0,1.409019947052,78.6154022216797,0.982954025268555,0,72.0151977539062,77.6268997192383,-80.5096969604492,1],"mesh":2,"name":"dial2_002"}],"samplers":[{"magFilter":9729,"minFilter":9987,"wrapS":10497,"wrapT":10497}],"scene":0,"scenes":[{"nodes":[0]}],"textures":[{"sampler":0,"source":0},{"sampler":0,"source":1},{"sampler":0,"source":2},{"sampler":0,"source":3},{"sampler":0,"source":4}]}